#tb 0: 1/44100
#media_type 0: audio
#codec_id 0: pcm_s16le
#sample_rate 0: 44100
#channel_layout_name 0: stereo
0,          0,          0,     4096,    16384, 0x07e1d2c1
0,       4096,       4096,     4096,    16384, 0x669aed25
0,       8192,       8192,     4096,    16384, 0x4df6e92b
0,      12288,      12288,     4096,    16384, 0xd7a5e365
0,      16384,      16384,     4096,    16384, 0xd4cce2a9
0,      20480,      20480,     4096,    16384, 0x3d82e07d
0,      24576,      24576,     4096,    16384, 0xd5f5d64f
0,      28672,      28672,     4096,    16384, 0x29f1dbf1
0,      32768,      32768,     4096,    16384, 0xf287e2a9
0,      36864,      36864,     4096,    16384, 0x669aed25
0,      40960,      40960,     4096,    16384, 0x549b0a60
0,      45056,      45056,     4096,    16384, 0x1234d369
0,      49152,      49152,     4096,    16384, 0x93309cc3
0,      53248,      53248,     4096,    16384, 0xebeee5b3
0,      57344,      57344,     4096,    16384, 0x981ee56d
0,      61440,      61440,     4096,    16384, 0x7e7706c2
0,      65536,      65536,     4096,    16384, 0x164f2ffc
0,      69632,      69632,     4096,    16384, 0x7147de0b
0,      73728,      73728,     4096,    16384, 0xca378eb9
0,      77824,      77824,     4096,    16384, 0x643b9baf
